<svg width="16" height="18" viewBox="0 0 16 18" fill="none" xmlns="http://www.w3.org/2000/svg">
<path d="M5.99999 9V1.12C5.95999 0.820002 6.05999 0.5 6.28999 0.290001C6.38251 0.197298 6.49239 0.123751 6.61337 0.0735683C6.73434 0.023386 6.86402 -0.00244331 6.99499 -0.00244331C7.12596 -0.00244331 7.25564 0.023386 7.37662 0.0735683C7.49759 0.123751 7.60748 0.197298 7.69999 0.290001L9.70999 2.3C9.81899 2.40666 9.90188 2.53707 9.95218 2.68104C10.0025 2.82502 10.0188 2.97866 9.99999 3.13L9.99999 9H10.03L15.79 16.38C15.9524 16.5885 16.0257 16.8527 15.9938 17.1151C15.9619 17.3774 15.8276 17.6165 15.62 17.78C15.43 17.92 15.22 18 15 18L0.999991 18C0.779991 18 0.56999 17.92 0.379991 17.78C0.172425 17.6165 0.0380325 17.3774 0.00617886 17.1151C-0.0256748 16.8527 0.0475988 16.5885 0.209991 16.38L5.96999 9H5.99999Z" fill="white"/>
</svg>
